<?xml version="1.0" standalone="no"?>
<!DOCTYPE svg PUBLIC "-//W3C//DTD SVG 20010904//EN"
 "http://www.w3.org/TR/2001/REC-SVG-20010904/DTD/svg10.dtd">
<svg version="1.0" xmlns="http://www.w3.org/2000/svg"
 width="306.000000pt" height="306.000000pt" viewBox="0 0 306.000000 306.000000"
 preserveAspectRatio="xMidYMid meet">
<metadata>
Created by potrace 1.14, written by Peter Selinger 2001-2017
</metadata>
<g transform="translate(0.000000,306.000000) scale(0.100000,-0.100000)"
fill="#000000" stroke="none">
<path d="M1305 3049 c-22 -4 -60 -10 -85 -14 -25 -4 -53 -11 -62 -16 -10 -6
-18 -7 -18 -5 0 10 -205 -66 -284 -106 -303 -152 -540 -387 -689 -683 -76
-152 -112 -259 -148 -450 -23 -116 -17 -416 10 -545 127 -603 567 -1058 1156
-1195 55 -12 126 -26 158 -30 l57 -6 0 130 0 131 -27 1 c-40 1 -79 8 -148 25
-310 80 -574 265 -753 529 -81 120 -168 323 -187 438 -3 17 -8 39 -10 47 -23
85 -24 317 -1 446 87 503 457 903 951 1028 33 8 83 18 110 22 28 3 53 8 58 11
4 2 7 60 7 129 l0 124 -27 -2 c-16 -1 -46 -5 -68 -9z"/>
<path d="M1662 2933 l3 -127 78 -13 c165 -28 350 -102 494 -197 252 -168 443
-432 522 -727 114 -420 11 -862 -276 -1189 -149 -169 -333 -291 -557 -365
-109 -37 -120 -39 -208 -50 l-58 -8 0 -128 c0 -71 3 -129 8 -129 10 0 131 19
167 25 373 70 741 316 959 640 118 175 215 412 241 586 2 19 9 61 14 94 10 62
7 349 -5 420 -3 22 -19 91 -35 153 -75 291 -229 545 -460 758 -49 45 -194 154
-205 154 -4 0 -15 6 -23 14 -31 28 -202 107 -304 141 -97 32 -193 54 -310 70
l-48 6 3 -128z"/>
<path d="M1400 2544 c-261 -46 -445 -142 -613 -318 -134 -142 -229 -332 -262
-528 l-6 -38 129 0 129 0 17 67 c114 463 646 703 1080 486 193 -96 353 -299
397 -502 l11 -51 129 0 130 0 -6 38 c-15 84 -49 192 -86 269 -142 297 -413
505 -737 566 -66 13 -263 19 -312 11z"/>
<path d="M1413 2026 c-181 -44 -330 -191 -377 -371 -22 -84 -15 -223 13 -295
67 -167 193 -281 355 -324 57 -14 191 -16 245 -3 181 46 328 192 375 372 17
68 15 205 -4 270 -36 119 -139 245 -250 304 -104 56 -244 74 -357 47z m221
-265 c161 -71 200 -290 75 -411 -162 -157 -433 -43 -432 182 0 181 190 303
357 229z"/>
<path d="M525 1373 c4 -21 9 -48 11 -59 10 -55 49 -165 81 -229 33 -65 103
-176 127 -201 6 -6 27 -28 46 -50 20 -21 60 -59 90 -84 30 -25 57 -47 60 -50
41 -42 217 -124 335 -157 89 -24 117 -27 255 -27 134 1 168 4 250 26 272 73
491 240 630 482 28 48 50 91 50 97 0 5 4 17 9 27 14 26 21 45 40 112 13 44 15
52 27 118 l6 32 -129 0 -129 0 -18 -72 c-52 -202 -204 -390 -396 -490 -45 -24
-174 -66 -224 -73 -131 -19 -269 -2 -396 47 -222 88 -396 285 -457 520 l-17
68 -129 0 -129 0 7 -37z"/>
</g>
</svg>
