<svg width="120" height="100" viewBox="0 0 120 100" fill="none" xmlns="http://www.w3.org/2000/svg">
<path d="M87.9708 22.7837C90.1329 22.8817 91.2827 27.4367 87.9708 28.4764C85.1943 28.2066 85.1858 23.1706 87.9708 22.7837Z" fill="black"/>
<path d="M53.4731 96.889C53.9327 94.2583 59.0373 94.039 59.3063 96.889C59.054 99.9462 54.1665 99.6503 53.4731 96.889Z" fill="black"/>
<path d="M74.1291 87.9635C80.1047 88.3528 74.5221 99.8962 65.4569 98.9094C64.2365 98.7766 63.7416 97.9934 63.4827 96.8889C64.5173 92.9087 70.2315 97.7935 72.5712 90.619C73.2512 88.9824 72.7469 89.3412 74.0396 88.0539L74.1291 87.9635Z" fill="black"/>
<path d="M53.4732 0.00172467C54.6657 -0.0472829 55.2384 0.956617 55.6371 1.93247C55.1137 3.26146 53.6701 4.49478 52.6963 5.53604L56.6726 5.52062C57.765 5.51699 59.1687 5.32791 60.0668 6.10356C60.8791 6.8051 60.7408 8.09442 60.032 8.81955C59.2167 9.65329 54.0955 9.35138 52.6963 9.32475C53.2402 10.121 53.9838 10.7472 54.6902 11.3949C56.1843 12.9852 54.1532 15.5451 52.3297 14.2664C50.8969 13.2614 46.6635 9.27514 46.3057 7.38714C46.5997 5.61167 51.1024 1.40443 52.4567 0.387795C52.7184 0.191402 53.161 0.0998911 53.4732 0.00172467Z" fill="black"/>
<path d="M67.561 5.53611C70.333 5.36065 78.5584 5.29167 80.8854 5.72669C88.4089 7.13279 92.7104 17.6954 87.9709 18.7887C85.7492 18.3728 86.255 16.9627 85.9005 15.1452C84.7618 9.30908 79.819 9.32391 75.3091 9.32542L69.4817 9.32724C68.5711 9.3342 67.293 9.54656 66.5162 8.99114C64.9422 7.86548 65.7381 5.73698 67.561 5.53611Z" fill="black"/>
<path d="M16.3471 5.53596L35.2752 5.53233C36.4224 5.53475 38.3418 5.25493 39.2339 6.15703C39.9887 6.92058 39.7981 8.58986 38.8125 9.0751C37.8052 9.57062 35.6664 9.32498 34.4987 9.32377L22.349 9.32316C14.5695 9.31167 9.44428 8.64583 9.45475 18.8518L9.46285 39.8972C9.46437 42.5878 9.53709 45.2926 9.46161 47.9808L11.683 45.8426C14.2249 43.5922 16.2796 46.2616 14.6606 48.1345C13.8538 49.0677 12.8724 49.9108 11.9946 50.7839C10.9359 51.8366 8.46806 55.2037 6.81472 54.3055C6.04246 53.8862 0.359177 48.2648 0 47.0151C0.264702 45.5035 0.828016 44.9499 2.40101 44.8509C3.57377 45.4027 4.77385 47.0139 5.6641 47.9808L5.66011 18.8007C5.65935 17.4297 5.56351 15.9933 5.79887 14.6393C6.70966 9.39879 11.1541 5.96886 16.3471 5.53596Z" fill="black"/>
<path d="M31.7257 25.8624C32.7219 20.4722 37.3322 21.0911 41.3521 21.0914L56.6657 21.0866C60.0594 21.0802 63.6463 20.8086 65.1383 24.6917C65.8129 26.4475 66.1127 29.2415 63.9642 29.9772C63.9664 30.8509 64.1122 33.5838 63.9642 34.256C67.3052 35.4277 64.4849 39.0911 62.4502 39.9612C61.4379 40.3941 60.3867 40.3917 59.3061 40.3832C59.2952 41.0006 59.2904 41.6159 59.3061 42.2334C59.3122 43.9126 59.2589 45.6022 59.3061 47.2796C59.0102 48.6443 57.3413 49.5721 56.1478 48.598C55.5301 48.094 55.3716 47.1568 54.9432 46.501C54.039 45.117 51.3605 42.8656 49.962 41.9545C44.524 38.4108 36.6779 41.9814 33.3124 38.7414C31.0311 36.5458 31.8029 32.5498 31.7257 29.6405H28.8548C22.7773 29.6112 22.05 29.4487 22.0525 35.6597L22.0606 69.8056C22.0634 70.8653 22.1638 72.0091 22.0561 73.0576C21.6168 73.4721 21.1997 73.7752 20.6325 74.0075C18.9889 74.1794 18.2883 73.0933 18.2798 71.5699L18.2825 36.2227C18.2777 28.6849 19.2929 25.8446 27.4094 25.8567L31.7257 25.8624ZM35.434 35.444C36.7399 37.2234 38.9882 36.55 40.9921 36.5458C47.3071 36.5328 50.7022 36.8156 55.6369 41.6746C55.5842 32.8027 58.7374 38.5971 61.4337 36.1192C62.4438 35.1911 62.2871 34.4151 63.9642 34.256C64.1122 33.5838 63.9664 30.8509 63.9642 29.9772C62.5563 29.9415 62.013 29.4143 61.6149 28.062C61.6288 27.6814 61.7892 27.254 61.8841 26.8834C61.5242 25.5269 61.1242 25.0332 59.6718 24.8765C57.7058 24.7386 55.6626 24.8889 53.6847 24.8765C50.8668 24.8369 48.0443 24.8735 45.2258 24.8765C43.899 24.774 36.8685 24.5967 36.0484 25.3043C35.0982 26.1235 35.3369 33.4937 35.434 35.444Z" fill="black"/>
<path d="M35.4341 35.444C35.337 33.4937 35.0983 26.1235 36.0485 25.3043C36.8686 24.5967 43.8991 24.774 45.2259 24.8765C48.0444 24.8735 50.8669 24.8369 53.6849 24.8765C55.6627 24.8889 57.7059 24.7386 59.6719 24.8765C61.1243 25.0332 61.5243 25.5269 61.8843 26.8834C61.7893 27.254 61.6289 27.6814 61.615 28.062C62.0131 29.4142 62.5564 29.9415 63.9643 29.9772C63.9665 30.8509 64.1123 33.5838 63.9643 34.256C62.2872 34.4151 62.4439 35.1911 61.4338 36.1192C58.7375 38.5971 55.5844 32.8027 55.637 41.6746C50.7023 36.8156 47.3072 36.5328 40.9922 36.5458C38.9883 36.55 36.74 37.2234 35.4341 35.444ZM45.2259 24.8765C43.7517 25.6189 43.2895 27.0537 44.1856 28.4765C45.6827 29.3011 53.1645 29.1762 54.3162 28.8153C56.2965 28.1951 55.5838 25.1297 53.6849 24.8765C50.8669 24.8369 48.0444 24.8735 45.2259 24.8765ZM59.6719 24.8765C58.7807 25.4083 57.97 25.493 57.6366 26.6278C56.9433 28.9868 60.4815 29.927 61.615 28.062C61.6289 27.6814 61.7893 27.254 61.8843 26.8834C61.5243 25.5269 61.1243 25.0332 59.6719 24.8765Z" fill="#696868"/>
<path d="M28.855 29.6404H31.7258C31.803 32.5497 31.0313 36.5457 33.3125 38.7413C36.678 41.9813 44.5241 38.4107 49.9621 41.9544C51.3606 42.8655 54.0391 45.1169 54.9433 46.5009C55.3717 47.1567 55.5302 48.0939 56.148 48.5979C57.3414 49.572 59.0104 48.6442 59.3062 47.2796C59.259 45.6021 59.3123 43.9125 59.3062 42.2333C59.5125 43.1375 60.8826 42.864 61.71 43.8285C62.6817 44.9611 63.5705 51.8923 63.1089 53.296C62.6878 54.5762 61.9659 55.7182 61.8843 57.0974C61.2414 57.458 60.7904 57.8652 60.2909 58.4028C59.3519 60.0814 59.4124 64.6213 59.8674 66.2579C60.2277 67.553 61.1854 67.8727 62.221 68.4427C63.2459 68.4018 64.2527 68.3689 65.2773 68.4427C65.9277 70.861 66.6631 73.0948 68.0834 75.1861L68.0102 75.2913C66.2039 77.8585 64.3894 78.567 66.8988 81.7479C67.2164 82.0202 67.521 82.2822 67.7924 82.6019C66.7814 87.2207 63.9078 86.8166 59.9715 86.8169L30.6059 86.8142C28.6175 86.8211 25.5103 87.3445 23.7603 86.1952C20.2339 83.8795 23.9642 80.4048 20.6326 78.3546C20.625 77.3911 20.7962 74.7701 20.6326 74.0075C21.1998 73.7751 21.617 73.472 22.0562 73.0576C22.1639 72.009 22.0635 70.8652 22.0607 69.8055L22.0526 35.6596C22.0502 29.4487 22.7774 29.6111 28.855 29.6404ZM62.221 68.4427C66.661 75.1252 61.7484 75.9069 61.8843 81.7479C62.6614 81.7876 66.4087 81.8789 66.8988 81.7479C64.3894 78.567 66.2039 77.8585 68.0102 75.2913L68.0834 75.1861C66.6631 73.0948 65.9277 70.861 65.2773 68.4427C64.2527 68.3689 63.2459 68.4018 62.221 68.4427Z" fill="#6B6B6B"/>
<path d="M28.8549 68.4429C30.1261 68.4047 32.365 68.1591 33.3331 69.0963C34.0567 69.7972 33.8144 71.0811 33.1168 71.71C32.3904 72.365 29.8744 72.2428 28.8549 72.1856C26.9957 71.3718 26.9333 69.1087 28.8549 68.4429Z" fill="black"/>
<path d="M46.3056 45.2288C48.8016 45.0697 52.4981 49.6092 48.8095 50.8807C46.1882 51.1624 42.6476 46.4643 46.3056 45.2288Z" fill="black"/>
<path d="M38.3558 68.4427C39.4954 68.4436 41.7576 68.2131 42.653 68.8396C44.1756 69.9044 43.3824 72.0118 41.6759 72.1854C40.5575 72.1881 38.223 72.4371 37.3539 71.8493C35.7172 70.7424 36.639 68.6783 38.3558 68.4427Z" fill="black"/>
<path d="M28.8548 75.1861C34.4272 75.0817 40.0219 75.1885 45.5961 75.1885L50.9064 75.1779C52.161 75.1698 54.2547 74.804 55.2363 75.8093C56.3402 76.9395 55.4545 78.7328 54.0063 78.8934C52.413 79.0701 50.6638 78.9328 49.059 78.9318L39.2662 78.9264C37.7182 78.9255 36.1207 78.8399 34.5778 78.9282C33.0187 78.7745 29.8707 79.2468 28.562 78.763C26.6111 78.0418 27.2781 75.8392 28.8548 75.1861Z" fill="black"/>
<path d="M22.0562 73.0576C22.1639 72.009 22.0635 70.8652 22.0607 69.8055L22.0526 35.6596C22.0502 29.4487 22.7774 29.6111 28.855 29.6404C28.7848 32.9324 28.8559 36.241 28.8565 39.5348V59.3C28.8562 60.2472 28.7445 68.1002 28.855 68.4427C26.9334 69.1085 26.9957 71.3716 28.855 72.1854C28.8786 73.1643 28.7539 74.2244 28.855 75.1861C27.2782 75.8392 26.6112 78.0418 28.5621 78.763C29.8708 79.2467 33.0188 78.7745 34.578 78.9282C33.0239 79.0371 30.4383 79.0313 28.855 78.9282C28.8495 79.8493 28.7718 80.8343 28.855 81.7479L28.861 81.8396C29.0017 84.2159 28.2629 85.4038 30.6059 86.8142C28.6175 86.8211 25.5103 87.3445 23.7603 86.1952C20.2339 83.8795 23.9642 80.4048 20.6326 78.3546C20.625 77.3911 20.7962 74.7701 20.6326 74.0075C21.1998 73.7751 21.617 73.472 22.0562 73.0576Z" fill="#464646"/>
<path d="M83.3259 38.2949C83.2627 34.7545 83.7685 32.3501 87.857 32.3405C94.3148 32.3253 93.8583 32.9999 94.8953 38.2949C97.4628 39.229 100.149 40.178 102.304 41.9109C106.366 38.1963 108.427 39.3062 111.777 43.1996C113.859 45.6203 112.571 48.1197 110.376 49.9027C111.773 52.0512 112.28 54.3676 113.065 56.7481C118.107 56.4664 119.181 58.6654 119.17 63.2645C119.159 67.8982 117.544 68.9234 113.065 68.8917C112.351 71.3844 111.341 72.9197 110.376 75.1861C113.09 78.3813 113.281 80.3706 110.247 83.3725C106.656 86.9252 105.309 86.4842 101.785 83.3831C99.5898 84.5816 97.2967 85.4235 94.8953 86.1063C94.9401 91.4279 93.0379 92.4809 87.9964 92.448C84.2062 92.4232 82.5805 89.4579 83.3259 86.1063C80.8719 85.2886 78.6744 84.5266 76.4654 83.1153C74.6149 85.0251 73.4914 86.031 70.822 85.3891C70.5001 86.2691 69.915 87.0638 69.6797 87.9635C71.1351 87.9713 72.6843 87.8452 74.1291 87.9635L74.0395 88.0539C72.7469 89.3411 73.2512 88.9823 72.5711 90.619C70.2315 97.7934 64.5173 92.9087 63.4826 96.8889C62.1041 96.8934 60.6777 97.0054 59.3061 96.8889C59.0372 94.0389 53.9325 94.2582 53.473 96.8889H49.1879C48.8006 98.3734 48.4195 98.9018 46.8116 98.9242C41.5406 98.9977 36.2556 98.9224 30.983 98.9212L25.2761 98.9194C21.2901 98.917 17.8306 98.9865 14.786 96.0019C12.81 94.0649 10.5762 90.1688 13.042 87.7502C14.4947 86.3256 17.1838 86.8124 19.0969 86.8142C18.4716 84.5402 16.635 78.1532 20.6325 78.3547C23.9641 80.4048 20.2337 83.8795 23.7602 86.1953C25.5102 87.3445 28.6174 86.8212 30.6058 86.8142L59.9713 86.8169C63.9077 86.8166 66.7813 87.2208 67.7923 82.602C67.5209 82.2822 67.2163 82.0202 66.8987 81.748C64.3893 78.567 66.2038 77.8585 68.0101 75.2914L68.0833 75.1861C66.663 73.0948 65.9276 70.861 65.2772 68.4427C64.2525 68.3689 63.2458 68.4019 62.2208 68.4427C61.1853 67.8728 60.2276 67.553 59.8673 66.2579C59.4123 64.6213 59.3518 60.0815 60.2908 58.4028C60.7903 57.8652 61.2413 57.4581 61.8842 57.0975C63.0128 57.059 64.1479 57.0863 65.2772 57.0975C65.3232 54.6701 66.65 52.001 67.7923 49.9027C63.937 46.5136 64.6068 45.4152 67.8785 41.9593C71.0268 38.634 72.2704 38.8896 75.609 41.9109C77.8001 40.3523 80.583 38.4912 83.3259 38.2949ZM87.114 36.19C87.1551 42.5476 87.4779 40.659 83.0261 42.1613C81.8602 42.5549 80.7427 43.0961 79.6688 43.6951C74.8092 46.4065 76.1768 47.5594 71.64 43.4219C70.8171 44.3355 69.9852 45.2174 69.0973 46.0686C73.5083 49.9529 72.7257 48.8742 70.7028 52.5249C69.8984 53.977 69.267 55.639 68.9597 57.2787C68.1347 61.6785 68.4336 60.773 63.4826 60.8003V64.6558C69.6476 64.6591 67.8416 64.2492 69.4691 69.2988C69.8966 70.6254 72.4777 75.0554 72.4692 75.2493C72.4341 76.0664 70.2176 78.2893 69.6797 79.2368C70.1667 79.7365 71.7713 81.6182 72.4329 81.6336C73.8659 81.6672 74.4243 78.9887 76.0737 78.9173C77.2014 78.8686 79.2955 80.573 80.4069 81.0843C81.5625 81.6161 86.1154 82.8095 86.4766 83.1622C87.8406 84.4945 86.4621 87.4828 87.1364 88.3059C87.4964 88.7458 90.3388 88.5482 91.0228 88.5422C91.9331 83.4245 89.1378 83.7627 94.6061 82.2973C96.5041 81.7885 98.2239 80.9787 99.9531 80.0518C103.815 77.9817 103.202 80.0911 106.099 82.0644C111.78 78.0416 105.808 78.2787 106.098 74.8975C106.179 73.9618 108.615 70.4678 109.149 68.4427C109.356 67.8552 109.51 67.2614 109.66 66.6573C110.151 65.6738 110.926 65.2911 111.97 65.0458L111.849 65.0067C110.897 63.8517 110.893 61.8703 111.97 60.8003C111.189 60.5746 110.551 60.3193 109.923 59.7889C109.389 58.5768 109.199 56.6597 108.699 55.2367C107.954 53.1212 105.608 50.9201 106.402 48.7099C107.206 47.6565 108.268 46.8298 109.149 45.8426C108.446 44.93 107.538 44.1483 106.65 43.4219C103.881 45.4436 103.649 47.001 100.111 45.2288C99.352 44.3225 98.4148 43.83 97.3239 43.4219L97.2446 43.3629C95.5518 42.1293 91.358 42.0037 91.0818 40.3347C90.8658 39.0312 91.0161 37.5162 91.0228 36.19C89.7211 36.1891 88.4151 36.1652 87.114 36.19ZM111.97 60.8003C110.893 61.8703 110.897 63.8517 111.849 65.0067L111.97 65.0458C112.926 64.9828 114.166 65.2705 115.061 64.9574C115.633 64.245 115.488 61.3575 115.038 60.7921C114.33 60.5286 112.793 60.8075 111.97 60.8003Z" fill="black"/>
<path d="M15.8071 90.619C16.9246 90.5186 18.1208 90.6133 19.247 90.6145L26.3144 90.619C26.3135 92.1243 26.2929 93.6333 26.3144 95.1383C21.6436 95.151 17.7853 95.7566 15.8071 90.619Z" fill="#2B2B2B"/>
<path d="M69.6798 87.9635C71.1352 87.9713 72.6844 87.8452 74.1292 87.9635L74.0397 88.0539C72.747 89.3411 73.2513 88.9823 72.5713 90.6189C70.2316 97.7934 64.5174 92.9087 63.4828 96.8889C62.1042 96.8934 60.6778 97.0054 59.3062 96.8889C59.0373 94.0389 53.9326 94.2582 53.4731 96.8889H49.188C48.445 94.6748 47.1236 95.1361 45.1751 95.1355L26.3144 95.1382C26.293 93.6332 26.3135 92.1243 26.3144 90.6189L63.5333 90.6202C65.0413 90.6205 66.5796 90.6946 68.0834 90.6189C69.1189 89.8185 69.5325 89.355 69.6798 87.9635Z" fill="#464646"/>
<path d="M69.6799 87.9635C71.1353 87.9713 72.6845 87.8452 74.1293 87.9635L74.0397 88.0539C72.7471 89.3411 73.2514 88.9823 72.5713 90.6189C71.0932 90.4147 69.5746 90.867 68.0835 90.6189C69.119 89.8185 69.5325 89.355 69.6799 87.9635Z" fill="black"/>
<path d="M87.114 36.1899C88.4151 36.1651 89.7211 36.189 91.0228 36.1899C91.0162 37.5162 90.8658 39.0312 91.0818 40.3347C91.358 42.0037 95.5518 42.1292 97.2447 43.3629L97.3239 43.4219C98.4148 43.83 99.352 44.3225 100.111 45.2288C103.649 47.001 103.881 45.4436 106.65 43.4219C107.538 44.1482 108.446 44.9299 109.149 45.8426C108.268 46.8297 107.207 47.6565 106.402 48.7099C105.608 50.92 107.954 53.1212 108.699 55.2367C109.199 56.6597 109.389 58.5767 109.923 59.7889C110.551 60.3192 111.189 60.5745 111.97 60.8002C110.893 61.8702 110.897 63.8517 111.849 65.0067L111.97 65.0457C110.926 65.2911 110.151 65.6738 109.66 66.6572C109.51 67.2614 109.356 67.8552 109.149 68.4427C108.615 70.4677 106.179 73.9618 106.098 74.8975C105.808 78.2787 111.78 78.0415 106.099 82.0644C103.202 80.0911 103.815 77.9816 99.9531 80.0517C98.2239 80.9786 96.5041 81.7885 94.6061 82.2973C89.1378 83.7627 91.9331 83.4245 91.0228 88.5422C90.3388 88.5482 87.4964 88.7458 87.1364 88.3059C86.4621 87.4827 87.8407 84.4945 86.4766 83.1622C86.1154 82.8095 81.5625 81.616 80.4069 81.0842C79.2955 80.573 77.2015 78.8686 76.0737 78.9173C74.4244 78.9887 73.8659 81.6672 72.4329 81.6336C71.7713 81.6182 70.1668 79.7365 69.6797 79.2368C70.2176 78.2893 72.4341 76.0664 72.4692 75.2493C72.4777 75.0554 69.8966 70.6253 69.4692 69.2988C67.8416 64.2492 69.6476 64.6591 63.4827 64.6558V60.8002C68.4336 60.773 68.1348 61.6784 68.9597 57.2786C69.2671 55.639 69.8984 53.977 70.7028 52.5249C72.7257 48.8741 73.5083 49.9529 69.0974 46.0686C69.9852 45.2173 70.8172 44.3355 71.64 43.4219C76.1768 47.5594 74.8092 46.4065 79.6688 43.6951C80.7427 43.0961 81.8602 42.5549 83.0261 42.1613C87.4779 40.659 87.1552 42.5476 87.114 36.1899ZM80.2312 68.4427C81.1342 70.2929 82.8062 71.8042 84.7889 72.4141C85.4614 70.2345 86.9183 70.8601 88.6907 70.9784C94.9583 71.3964 95.1349 65.5957 98.1365 66.6572C98.7654 64.546 98.9551 63.2046 98.9097 61.0023C97.2062 60.5367 97.3865 59.6355 96.6632 58.3054C91.9869 49.7067 79.1696 54.3708 80.9977 63.5383C81.4197 65.6535 82.6628 66.9652 80.2312 68.4427ZM109.923 59.7889C109.389 58.5767 109.199 56.6597 108.699 55.2367C107.954 53.1212 105.608 50.92 106.402 48.7099C104.735 46.4492 101.868 47.5679 101.719 49.6912C101.615 51.179 103.092 52.2439 103.831 53.3843C105.008 55.2019 105.78 57.1643 106.132 59.2967C106.369 60.7297 106.235 62.9859 108.233 62.991C109.927 62.9953 110.105 61.0407 109.923 59.7889ZM97.3239 43.4219C96.6599 43.4443 96.1326 43.4845 95.6374 43.9909C92.3097 47.3921 101.435 50.4757 100.111 45.2288C99.352 44.3225 98.4148 43.83 97.3239 43.4219ZM109.149 68.4427C109.356 67.8552 109.51 67.2614 109.66 66.6572C109.162 65.8964 108.965 65.1764 107.951 64.9674C103.987 64.1506 104.572 71.5849 109.149 68.4427Z" fill="#696868"/>
<path d="M84.7891 72.4141C85.4616 70.2345 86.9185 70.8601 88.6909 70.9784C94.9584 71.3964 95.1351 65.5957 98.1367 66.6572C102.262 69.2095 94.4417 74.0129 91.6901 74.5526C89.4829 74.9855 84.9757 75.5336 84.7891 72.4141Z" fill="black"/>
<path d="M80.2313 68.4426C75.5507 68.8392 74.6217 52.8074 86.5399 50.2648C96.8439 48.0664 104.329 60.0351 99.0193 60.9835L98.9098 61.0023C97.2064 60.5367 97.3867 59.6355 96.6634 58.3053C91.9871 49.7066 79.1697 54.3708 80.9979 63.5383C81.4199 65.6534 82.6629 66.9652 80.2313 68.4426Z" fill="black"/>
</svg>
