<svg width="120" height="113" viewBox="0 0 120 113" fill="none" xmlns="http://www.w3.org/2000/svg">
<path d="M26.3411 21.1894C26.4927 17.6985 29.7333 18.2818 32.2188 18.2815C34.8017 18.2815 39.1846 17.4498 39.3301 21.1894C39.0526 24.536 34.6155 23.7282 32.3352 23.7245C29.9587 23.7205 26.9068 24.3001 26.3411 21.1894Z" fill="black"/>
<path d="M24.5811 92.3803C25.7911 92.2308 28.6595 94.2118 30.068 94.8971C33.8385 96.7313 37.7159 98.2002 41.79 99.1822C43.0732 99.4913 45.0842 99.7018 46.1655 100.399C48.2966 101.773 47.14 104.8 44.9035 105.193C41 105.717 26.9811 99.4855 23.7203 97.3866C21.5482 95.9885 21.7305 92.8217 24.5811 92.3803Z" fill="black"/>
<path d="M34.1639 0.0112977C35.6383 -0.117327 37.0314 0.883155 38.3327 1.44596C39.9902 2.16267 43.4951 2.9271 42.9836 5.39894C42.7394 6.57862 39.7078 12.5958 38.4577 12.9312C36.133 13.5549 35.4073 11.4787 34.9331 9.65266C34.261 9.87873 33.604 10.1489 32.9448 10.4096C31.0468 11.2014 27.1016 13.6486 25.5146 12.8133C24.2044 12.1238 23.6004 10.5358 24.3356 9.20666C25.3207 7.42622 30.8991 5.26455 32.9448 4.67997C31.6993 2.95255 31.8408 0.525124 34.1639 0.0112977Z" fill="black"/>
<path d="M45.3328 21.1894C45.4957 19.693 46.0784 18.5308 47.666 18.3118C49.1085 18.1133 57.023 18.1409 58.5126 18.3495C62.254 18.8736 65.2836 21.8125 66.0809 25.4669C66.466 27.2304 66.2598 30.906 66.2556 32.8857C66.251 35 66.6115 38.3487 63.502 38.2133C61.0517 37.7324 60.9494 36.0537 60.9608 33.8258L60.9837 29.2769C60.9966 24.4033 60.0997 23.6869 55.5744 23.7071L50.8172 23.7267C48.4328 23.7356 45.9071 24.0995 45.3328 21.1894Z" fill="black"/>
<path d="M2.31409 60.0609C5.07151 59.9813 5.19392 62.4705 5.65944 64.5081C7.06418 70.6573 9.93268 76.4572 13.857 81.3951C14.7325 82.4964 18.802 86.5236 19.0544 87.4294C19.5135 89.0774 18.2809 90.4503 16.7591 90.8437C14.8507 91.2434 12.9435 88.4118 11.8846 87.2339C6.09132 80.7907 1.81374 72.759 0.150619 64.2248C-0.236144 62.2398 0.000825274 60.438 2.31409 60.0609Z" fill="black"/>
<path d="M50.0813 0.915021C66.6065 -0.138302 84.241 9.90668 94.2127 22.5646C95.6726 24.4178 97.2952 26.4962 98.2678 28.6521C100.368 25.9271 104.116 27.7178 103.247 30.6325C102.791 32.1644 100.286 37.5952 98.6633 38.4836C96.6951 38.7902 90.9782 35.8139 90.1705 34.7942C88.3405 32.4833 90.4097 30.1209 93.4245 30.684C85.4859 17.8101 72.1265 8.82413 57.1399 6.60681C55.5428 6.37045 49.9003 6.28159 49.0876 5.77447C46.9553 4.44417 47.8014 1.41126 50.0813 0.915021Z" fill="black"/>
<path d="M63.5023 43.83C66.742 44.3011 66.2691 46.971 65.8794 49.3239C63.737 62.2532 56.1016 67.4071 46.6953 74.8676C42.7428 78.0028 39.3696 81.6753 33.6907 78.9484C31.6637 77.9749 22.3567 70.3907 20.1855 68.55C11.7319 61.3832 8.79486 52.2174 8.79839 41.5693L8.80185 34.8357C8.80142 32.4038 8.52215 28.1264 8.96656 25.9368C10.4924 18.4184 21.0337 15.7227 21.1547 21.0923L21.1559 21.1894C20.6628 23.0267 19.7769 23.6528 17.9331 23.719L17.9304 38.5156C17.9304 41.0339 17.8149 43.6165 18.063 46.1256C19.2044 57.6577 27.0986 65.4518 35.403 72.5441C36.2791 73.2925 37.2943 73.982 38.0797 74.8173C38.5879 74.6826 51.1364 64.7617 52.2971 63.7021C56.5644 59.8063 59.821 54.1632 60.5635 48.3709C60.8726 45.9614 60.5142 44.2469 63.5023 43.83ZM38.0797 74.8173C37.2943 73.982 36.2791 73.2925 35.403 72.5441C27.0986 65.4518 19.2044 57.6577 18.063 46.1256C17.8149 43.6165 17.9304 41.0339 17.9304 38.5156L17.9331 23.719C12.8215 24.0743 13.9525 30.3294 13.9555 33.8181C13.9653 46.0006 13.179 55.6795 23.7168 64.709C27.0064 67.5281 30.6532 69.9269 33.99 72.7086C35.3056 73.8055 36.2568 74.8195 38.0797 74.8173Z" fill="black"/>
<path d="M39.3299 21.1894H45.3329C45.9073 24.0995 48.4329 23.7356 50.8173 23.7267L55.5745 23.7071C60.0998 23.6869 60.9967 24.4034 60.9839 29.277L60.9609 33.8259C60.9496 36.0537 61.0519 37.7324 63.5021 38.2133C63.4694 38.6406 63.4415 43.7409 63.5021 43.8301C60.514 44.247 60.8724 45.9615 60.5633 48.371C59.8208 54.1633 56.5642 59.8063 52.2968 63.7022C51.1362 64.7617 38.5877 74.6826 38.0795 74.8174C37.2941 73.9821 36.2789 73.2925 35.4028 72.5442C27.0984 65.4519 19.2042 57.6578 18.0628 46.1257C17.8147 43.6166 17.9302 41.0339 17.9302 38.5157L17.9329 23.719C19.7767 23.6529 20.6626 23.0267 21.1557 21.1894C22.3798 21.1882 25.2681 20.9888 26.3409 21.1894C26.9067 24.3001 29.9585 23.7206 32.335 23.7246C34.6153 23.7282 39.0524 24.536 39.3299 21.1894Z" fill="#696868"/>
<path d="M50.5308 33.932C52.1699 33.8134 53.6669 34.7667 53.6801 36.5339C53.6951 38.5532 49.7411 41.7448 48.2959 43.1885L42.0662 49.4479C37.1371 54.3833 35.6496 57.3323 29.7446 51.4604L26.9923 48.7675C26.0816 47.908 24.6704 46.831 24.5488 45.4917C24.3586 43.3989 26.6312 41.8538 28.4912 42.9618C29.502 43.564 30.391 44.6447 31.2214 45.4764L34.9328 49.1826C38.5113 45.6682 41.9443 41.9861 45.4811 38.4254C46.8577 37.0396 48.6117 34.5226 50.5308 33.932Z" fill="black"/>
<path d="M98.2679 46.557C100.385 46.3959 107.769 46.4755 108.108 49.4842C108.356 51.695 103.219 55.3283 101.701 57.3439C102.069 58.5131 102.259 59.7568 102.463 60.9637C103.811 61.4945 105.281 61.8952 106.676 62.2888C107.959 61.0446 109.284 59.8419 110.576 58.6062C112.529 56.7383 115.733 53.2355 116.915 58.1933C118.508 64.8745 117.584 68.3234 114.229 73.8066C115.842 74.3754 118.948 74.6245 119.162 76.8603C119.24 77.6745 118.706 84.7622 118.518 85.6619C117.975 88.2552 113.536 87.8815 111.542 88.0279C110.725 89.9832 110.114 91.8386 108.968 93.6609C110.506 95.4523 112.977 97.7537 110.913 100.05C110.172 100.874 104.49 106.384 103.935 106.611C101.67 107.538 99.6969 104.753 97.7634 103.963L97.647 103.916C96.1714 104.338 94.8083 104.906 93.4246 105.568C91.4547 111.534 93.9791 111.858 86.3397 111.658C85.0338 111.647 81.6909 111.919 80.6111 111.432C78.753 110.594 79.085 107.21 78.4068 105.568C77.051 104.921 75.5788 104.568 74.2077 103.916C73.4839 106.964 68.8453 111.675 65.6647 112.133C61.2154 112.774 59.6932 110.423 56.9085 107.625C55.5508 106.261 53.8734 104.964 52.835 103.334C51.0087 100.467 51.6768 96.4117 53.6862 93.8355C55.4985 91.5118 58.1665 90.6844 60.9761 90.3404C64.0853 87.112 67.3149 83.9731 70.5159 80.8364L77.9412 73.4163C80.1651 71.2105 82.4319 69.0479 84.6316 66.8178C82.2251 57.1622 88.2548 47.6628 98.2679 46.557ZM109.413 77.6562C107.472 78.6652 105.661 79.2279 103.498 79.5253C103.064 92.0546 91.779 99.4924 79.8922 95.9155C78.7383 97.0158 77.5068 98.0833 76.4169 99.2437C78.6745 100.602 82.6963 100.551 83.308 102.722C83.6342 103.88 83.8061 105.289 83.8983 106.49C84.4625 106.489 85.0292 106.477 85.5932 106.49C86.3577 106.493 87.1281 106.517 87.8918 106.49C89.2503 98.831 88.6 102.403 94.2646 99.7889C99.5909 97.3307 97.9055 97.0651 102.463 101.04C103.648 100.069 104.719 98.8703 105.803 97.7834C101.879 93.4679 102.61 94.5958 105.028 90.2378C105.758 88.9209 107.435 83.9226 107.881 83.5654C108.812 82.8186 112.26 82.784 113.586 82.5999C113.421 81.3657 113.617 80.2504 113.586 79.0303C112.197 78.5687 110.811 78.089 109.413 77.6562ZM96.9253 79.0303C93.0071 82.6128 87.6455 87.6861 84.1256 91.664C84.6163 91.6763 85.1024 91.6812 85.5932 91.664C92.4894 91.724 98.4946 86.5953 98.2679 79.5253C97.8286 79.3403 97.3927 79.1317 96.9253 79.0303Z" fill="black"/>
<path d="M99.368 51.7976C100.212 51.6699 99.0791 52.4075 98.8681 52.5839C95.417 55.4707 95.9304 55.8156 96.9235 59.532C97.2397 60.7144 97.6024 63.5313 98.381 64.4386C99.2292 65.4271 106.235 67.701 107.389 67.7619C109.374 67.8664 110.98 65.2479 112.337 64.0726C111.973 67.9761 110.109 71.5074 106.452 73.3073C100.44 76.2655 96.9349 72.5191 95.1398 73.5174C94.3314 73.9668 90.9135 77.59 90.0472 78.4508L71.3033 97.1922C67.8333 100.686 69.4709 99.0372 68.4364 103.332C67.4473 106.04 64.5173 108.84 62.4205 105.568C63.3576 104.655 65.0712 103.338 65.1827 101.961C65.2981 100.531 64.0147 99.134 62.5786 99.1328C61.028 99.1316 59.599 100.954 58.616 101.977C55.2731 98.612 57.286 95.8153 61.3352 95.4615C63.9117 95.2364 64.4355 93.9737 66.1286 92.2895L86.3471 72.3709C87.3764 71.3521 88.5076 70.3528 89.441 69.2461C90.8296 67.5996 89.4361 65.2345 89.294 63.3386C88.8412 57.2885 93.3751 52.2087 99.368 51.7976Z" fill="#484848"/>
</svg>
