<svg width="120" height="120" viewBox="0 0 120 120" fill="none" xmlns="http://www.w3.org/2000/svg">
<path d="M102.485 4.09249C106.563 3.84838 106.252 7.86145 102.948 7.64625L102.802 7.65733C98.8952 7.94983 98.746 3.97419 102.485 4.09249Z" fill="black"/>
<path d="M114.734 116.006C115.981 116.022 118.498 115.35 119.059 116.951C119.44 118.04 118.803 119.18 117.72 119.519C116.645 119.492 114.91 119.734 113.965 119.22C112.452 118.399 112.949 116.448 114.734 116.006Z" fill="black"/>
<path d="M88.865 35.417C92.0549 35.3629 91.2294 41.9065 89.1626 42.6119C86.3086 42.2715 87.0269 36.7408 87.5842 35.9594C87.8847 35.5384 88.3954 35.4895 88.865 35.417Z" fill="black"/>
<path d="M24.8906 35.417C28.174 35.2884 27.6595 41.8842 25.6493 42.6119C22.7104 42.9704 23.169 37.5042 23.6204 36.4559C23.8617 35.8953 24.3569 35.6437 24.8906 35.417Z" fill="black"/>
<path d="M51.1432 4.09243C53.5943 -1.32833 59.8345 -1.39984 62.5322 4.09243C70.1445 4.20788 77.7775 4.09207 85.3925 4.09376L90.8208 4.09039C92.2762 4.07601 96.0823 3.48121 96.0211 5.85597C95.9586 8.29107 92.6146 7.65507 91.0303 7.65196L62.5322 7.64619L61.878 9.15042C66.5777 9.09165 65.4079 10.5664 65.566 14.448L93.8015 14.4418C101.171 14.4312 100.867 16.6327 100.522 23.3194C100.303 27.5725 96.7355 27.1949 93.7655 27.1881L77.274 27.1823C75.4799 27.1826 73.6654 27.2402 71.8735 27.18C71.5451 35.7169 71.494 37.0664 62.2103 36.9731V40.7618C64.6096 40.7492 66.724 40.6391 68.5583 42.4558C69.9599 43.8445 71.4214 48.0098 69.8569 49.5277C68.9401 50.4176 65.4423 50.0837 64.016 49.8382C64.0623 54.5975 63.4464 54.8685 58.7652 54.8459V58.1002C63.3645 58.1203 62.753 61.7172 58.7652 61.6479V64.9687C60.9683 64.9531 63.1805 66.4159 61.1924 68.0717C60.5159 68.6356 59.5887 68.5345 58.7652 68.5267V72.5622L73.2929 72.5606C75.7224 72.5603 78.1856 72.4754 80.6122 72.5622C81.5413 71.7762 82.179 70.454 81.1877 69.4102C80.0276 68.1887 78.3394 68.8153 78.3012 66.0241C78.2254 60.4646 83.4756 60.3487 87.2663 60.0222L87.262 51.8156C87.2591 50.5967 87.104 49.0215 87.3119 47.8346C87.6354 45.9884 90.4328 46.1134 90.6615 47.9832C90.8224 49.301 90.7074 50.7505 90.7042 52.0825L90.6984 60.0222C99.8172 59.9983 101.011 61.6071 101.026 70.565L101.026 78.0974C101.025 86.1748 101.134 94.2664 101.036 102.341C101.019 103.678 100.741 104.684 99.2395 104.759V110.81C100.052 111.17 100.408 111.588 100.527 112.493L100.513 112.867C100.473 113.969 99.9468 114.999 99.5313 116.006C100.729 115.799 107.484 115.748 108.217 116.359C108.922 116.947 108.8 118.202 108.205 118.82C106.872 120.203 98.4606 119.414 96.3657 119.422L3.51985 119.527C1.44882 119.522 -1.38017 118.257 0.767024 116.448C1.59934 115.746 2.93142 115.995 3.92815 116.005L7.55367 116.012C9.67011 116.011 11.892 115.808 13.9957 115.994L14.1236 116.006C13.1113 114.089 13.2671 112.293 13.2664 110.203L13.271 89.9842C13.2797 88.4054 13.4555 86.9614 15.3947 87.0818C15.2769 85.3059 15.293 83.3294 15.3947 81.5567C12.3425 81.6966 13.2629 76.9144 13.2706 75.0471C13.2871 71.067 12.3383 64.7025 15.4041 61.8238C17.7711 59.6012 20.495 59.9196 23.486 60.0222L23.487 51.8535C23.4883 50.5925 23.3763 49.2084 23.5094 47.9586C23.6593 46.5528 25.3209 45.7766 26.4181 46.819C27.559 47.9026 27.0011 58.0345 27.0283 60.0222C30.5919 60.1103 35.8353 59.1987 36.1086 64.7096C36.3142 68.8555 31.225 69.19 33.5622 72.5622C34.388 72.6516 35.265 72.5761 36.0963 72.5713L41.5657 72.5353C43.457 72.534 44.5266 72.8106 44.4078 74.8855L44.4554 75.0082C45.9069 75.05 47.2554 74.7475 48.7946 74.9075C49.3319 74.9635 50.1771 75.492 50.6256 75.4111C48.9025 72.0725 53.4496 72.5489 55.303 72.5622V68.5267C53.7148 68.326 52.5597 68.4063 52.1335 66.6099C52.5153 64.8294 53.7443 64.9256 55.303 64.9687V61.6479C54.3719 61.5304 53.1737 61.5359 52.5334 60.7473C51.058 58.9292 53.3848 57.8699 55.303 58.1002V54.8459C49.8792 54.8773 49.9815 55.3219 50.023 49.8382C48.5472 49.7644 44.8074 50.234 43.7938 49.3159C42.2426 47.9107 43.8848 43.7583 45.0312 42.5818C46.8998 40.6646 49.0977 40.8097 51.5599 40.7618V36.9731C42.8086 36.6405 42.0185 36.4129 42.0502 27.18L25.7666 27.1764C22.3956 27.1764 15.3326 28.4158 13.7363 24.8713C13.0708 23.3933 13.0608 18.0728 13.6864 16.5821C14.841 13.8307 17.9295 14.4548 20.2948 14.4587C22.2101 14.4619 24.0589 13.7608 24.8543 16.052L24.8906 16.1586L24.9135 16.3334C25.7339 16.6 28.7948 16.326 29.94 16.3943C30.1514 13.434 35.0111 14.4415 37.2715 14.4418L48.1599 14.448C48.1534 12.9994 48.1278 11.5483 48.1599 10.1004C48.9624 9.32239 49.5693 9.11389 50.6904 9.13154L51.8002 9.15042C51.5768 8.65228 51.375 8.13951 51.1432 7.64619L27.551 7.64425C26.0324 7.64622 23.1564 8.11046 23.3053 5.72792C23.4449 3.49801 26.8359 4.09094 28.3139 4.09062L45.5574 4.08971C47.4157 4.08981 49.2862 4.04266 51.1432 4.09243ZM56.0096 8.45399C56.0403 8.36147 55.9209 5.11255 56.2557 3.61599C53.7203 4.30857 53.6523 7.31875 56.0096 8.45399ZM51.5599 12.4061C51.5978 13.0953 51.6072 13.7595 51.5599 14.448C52.2756 14.4898 52.9716 14.4807 53.6876 14.448C53.7268 13.776 53.6889 13.0807 53.6876 12.4061C52.9784 12.4126 52.2692 12.422 51.5599 12.4061ZM53.6876 49.8382C53.6734 50.3551 53.6695 50.8671 53.6876 51.3843C54.2249 51.383 54.7657 51.3691 55.303 51.3843C55.2502 50.8554 55.1248 50.314 54.8855 49.8382H53.6876Z" fill="black"/>
<path d="M46.8894 46.3644C47.6391 44.3391 48.5336 44.207 50.6256 44.2303C50.0388 44.8534 49.3286 45.459 49.2661 46.3644H46.8894Z" fill="white"/>
<path d="M57.2009 36.9731C57.7223 36.933 58.243 36.9576 58.7651 36.9731V40.7618H57.2009C57.1948 39.5169 57.3181 38.2086 57.2009 36.9731Z" fill="#545454"/>
<path d="M54.8855 49.8381H60.5868V51.3842C58.8351 51.3864 57.0511 51.4583 55.3029 51.3842C55.2501 50.8553 55.1248 50.3139 54.8855 49.8381Z" fill="#6B6B6B"/>
<path d="M54.8855 36.973C55.6627 37.0048 56.4231 37.0142 57.201 36.973C57.3182 38.2085 57.1948 39.5168 57.201 40.7617H54.8855V36.973Z" fill="white"/>
<path d="M56.2556 3.61598C60.9514 2.63288 59.3089 10.0874 56.0095 8.45398C56.0403 8.36146 55.9208 5.11254 56.2556 3.61598Z" fill="#545454"/>
<path d="M53.6875 12.4062C56.5257 12.4052 59.3729 12.3544 62.2102 12.4062C62.1357 13.1096 62.1091 13.745 62.2102 14.448H53.6875C53.7267 13.7761 53.6888 13.0808 53.6875 12.4062Z" fill="#6B6B6B"/>
<path d="M45.8589 27.1801C48.6589 27.0794 51.4964 27.1807 54.3006 27.1807L68.4021 27.1801C68.4076 33.0683 69.0528 33.6476 62.8563 33.5142C64.0454 31.4008 63.7779 29.505 63.7711 27.1801L51.7584 27.1769C49.8059 27.1775 47.8042 27.2931 45.8589 27.1801Z" fill="#545454"/>
<path d="M50.6256 44.2302L60.1512 44.2272C61.5418 44.2276 65.1006 43.7269 66.0744 44.9358C66.5307 45.3743 66.6767 45.7765 66.8542 46.3643C66.1492 46.3692 65.3988 46.4294 64.6993 46.3643C63.1002 46.4948 61.3848 46.3688 59.7723 46.3679L49.2661 46.3643C49.3286 45.4588 50.0388 44.8532 50.6256 44.2302Z" fill="#6B6B6B"/>
<path d="M45.8588 27.18C47.8042 27.293 49.8058 27.1774 51.7583 27.1768L63.7711 27.18C63.7779 29.5049 64.0454 31.4007 62.8562 33.5141C59.9102 33.596 56.9402 33.5096 53.9916 33.5138C51.9481 33.517 46.1784 34.4316 45.5819 32.015C45.4294 31.3965 45.3604 27.6502 45.626 27.2214L45.8588 27.18Z" fill="#6B6B6B"/>
<path d="M32.9201 91.1134H81.5109C81.532 91.6222 81.521 92.1287 81.5109 92.6377C80.6009 94.2719 78.9972 93.8664 77.4101 93.8661L42.1578 93.8677C39.7743 93.8687 36.9163 94.0128 34.5901 93.8412C33.048 93.7275 32.9149 92.3803 32.9201 91.1134Z" fill="#545454"/>
<path d="M70.4239 97.4139H77.0643V101.164H43.9899H37.0654C37.0395 99.916 37.0645 98.6624 37.0654 97.4139H70.4239Z" fill="#545454"/>
<path d="M36.1139 111.628C35.6864 109.05 32.926 107.756 32.8392 106.347C32.7025 104.124 36.644 104.75 37.9559 104.753L67.7695 104.759C68.4185 104.99 69.6974 104.794 70.4238 104.759C68.0319 110.931 64.6655 111.635 58.6478 111.633L36.1139 111.628Z" fill="white"/>
<path d="M67.7693 104.759C70.3698 104.711 72.9761 104.758 75.5773 104.761C77.305 104.764 81.2167 103.971 81.286 106.629C81.3518 109.153 74.6423 111.608 80.6121 116.006L39.415 116.008C37.5519 116.008 35.6577 116.083 33.7988 116.006C34.897 114.551 36.0641 113.587 36.1137 111.628L58.6475 111.633C64.6653 111.635 68.0316 110.931 70.4236 104.759C69.6972 104.794 68.4183 104.99 67.7693 104.759Z" fill="#6B6B6B"/>
<path d="M24.8906 16.1584L24.9136 16.3333C25.7339 16.5998 28.7949 16.3259 29.94 16.3942C31.0774 19.0397 34.8395 17.9804 37.5909 17.9762L93.432 17.9736C94.6451 17.9539 95.8589 17.9671 97.0724 17.9736V23.7432H92.0777H27.7719C26.4192 23.7436 17.8249 24.0324 16.9603 23.5431C16.6584 22.6266 16.7773 19.0873 16.8268 17.9736C19.4069 17.8496 24.0985 19.1161 24.8906 16.1584Z" fill="#696868"/>
<path d="M44.4076 74.8855L44.4552 75.0083C45.9067 75.05 47.2552 74.7476 48.7945 74.9076C49.3317 74.9636 50.177 75.4921 50.6255 75.4111C51.9238 76.3027 53.34 76.0443 54.8565 76.0417L77.3995 76.0355C75.4486 82.4509 80.885 82.8097 81.3553 84.0662C81.705 85.0005 81.5143 89.7876 81.5107 91.1135H32.9198L32.9046 87.0557C32.902 86.213 32.6562 84.3567 33.4419 83.7728C34.6783 82.8534 40.0597 84.27 41.5494 83.0465C42.8596 81.9703 42.073 80.1195 40.0947 80.0784H37.0651V76.0355C38.4531 75.9992 39.8498 75.9921 41.2378 76.0355C42.6696 75.825 43.4743 76.3594 44.4076 74.8855Z" fill="white"/>
<path d="M81.7536 65.5056C83.4149 62.8219 85.1572 63.4531 87.9925 63.4541L93.4321 63.4576C97.9815 63.6114 97.4741 65.6675 97.4747 69.4993L97.4737 96.0294C97.4731 98.5188 96.3532 104.303 99.2397 104.759V110.81C98.2882 110.888 97.6052 111.109 97.0725 111.927C96.6845 116.359 93.4555 116.007 90.0272 116.009L84.9859 116.006C84.1475 114.588 82.9806 113.565 81.7536 112.493L82.2585 111.628C84.0477 109.949 85.0672 108.213 84.744 105.634C84.2271 103.239 82.7782 102.167 80.6124 101.164V97.4139C82.8803 96.6677 84.4574 95.3186 84.8567 92.9156C85.0795 91.5756 85.0973 85.4902 84.9292 84.1702C84.4532 80.4333 80.9097 80.2743 80.5246 78.5343C80.0395 76.3428 83.4635 74.9043 84.3832 73.4185C86.3276 70.2778 84.5808 67.2515 81.7536 65.5056Z" fill="#696868"/>
<path d="M15.3949 81.5567L15.4885 81.5207C18.443 80.351 15.8376 68.7366 17.0728 65.4784C18.1839 62.5479 23.0212 63.4469 25.4646 63.4582C26.5903 63.4634 32.2903 62.9472 32.7236 64.4055C33.0031 65.3459 31.3143 66.7397 30.7728 67.336C27.9958 70.3921 29.5992 75.0373 33.5624 76.0354C33.5718 77.38 33.6107 78.735 33.5624 80.0783C28.7931 80.6017 29.4304 85.8496 29.4385 89.1457C29.4486 93.3894 29.4094 95.6437 33.5624 97.4138V101.164C30.4431 102.473 28.2471 105.004 29.7329 108.476C30.3605 109.943 32.78 111.269 32.541 112.067C31.3687 113.318 30.5105 114.232 30.3032 116.006C27.8203 115.967 20.9677 116.345 18.9407 115.773C17.1968 115.281 16.8257 113.173 16.827 111.628C16.8276 108.971 16.996 89.0142 16.6916 88.2043C16.4662 87.6039 15.9342 87.3406 15.3949 87.0818C15.2771 85.3059 15.2933 83.3294 15.3949 81.5567Z" fill="#696868"/>
</svg>
