<svg width="120" height="119" viewBox="0 0 120 119" fill="none" xmlns="http://www.w3.org/2000/svg">
<path d="M75.8394 103.617C77.7192 101.807 79.7448 103.425 78.3544 105.675C76.8203 106.703 75.575 107.211 74.9253 105.063C75.1171 104.459 75.4225 104.077 75.8394 103.617Z" fill="black"/>
<path d="M13.4583 8.78751C11.1252 6.83991 12.8583 5.38778 14.7549 4.25341C17.089 2.85725 28.3131 -3.0454 28.2209 2.99887C27.4348 4.70727 25.8996 4.56924 24.271 4.87788C21.8218 5.34209 19.5844 6.29225 17.4556 7.57462C16.013 8.44347 15.1869 9.45737 13.4583 8.78751Z" fill="black"/>
<path d="M33.076 22.1133C34.7626 22.0114 36.2468 23.2199 35.5255 25.0542C35.2302 25.8055 28.684 32.6989 27.4178 33.2535C25.8137 33.221 25.2633 32.4681 24.2183 31.4092C23.3941 30.4983 21.818 29.4823 21.7242 28.1661C21.6397 26.9821 22.5938 25.9251 23.7836 25.9029C25.0679 25.879 26.0571 27.123 26.8832 27.9572C28.7514 26.4962 31.2735 23.0051 33.076 22.1133Z" fill="black"/>
<path d="M40.89 68.9771C43.9058 69.4907 41.994 72.462 44.648 72.9792C46.3092 73.3026 48.5986 73.114 50.321 73.113L61.1327 73.1078C63.1963 73.1075 66.0744 72.3446 66.8995 74.8213C66.9917 76.5144 65.8932 77.2022 64.3697 77.2257C60.79 77.2805 46.463 77.7255 43.534 77.0161C39.2827 75.9862 36.4094 68.6266 40.89 68.9771Z" fill="black"/>
<path d="M33.7046 3.61553C34.2695 0.234502 37.6393 1.90628 39.7738 2.8241C44.9506 5.05012 49.3238 8.87218 52.2932 13.6545C53.9873 16.382 58.2954 23.3641 53.9602 25.2855C51.4187 24.3446 51.8508 23.2622 51.104 20.9619C49.0646 14.6808 44.1007 9.07322 37.9295 6.63607C36.0378 5.88898 34.0151 6.02617 33.7046 3.61553Z" fill="black"/>
<path d="M2.59147 25.2854C1.78135 24.9059 1.01956 24.0931 0.973479 23.1696C0.88584 21.4129 4.8252 8.30817 8.98372 12.5075C9.14759 12.8844 9.30058 13.2462 9.40183 13.6464C8.87474 15.8357 6.30197 18.6532 5.41726 22.1133C5.96944 22.4196 6.71353 22.8326 6.90761 23.4811C6.95545 23.641 6.67874 29.4494 6.63511 29.8576C6.48424 31.2686 5.77801 31.6268 4.55848 32.2672C6.1136 38.1085 8.17002 43.4368 13.4584 47.0494C14.8842 44.2113 18.1809 47.5546 19.963 48.3111C22.7015 49.4735 25.3232 48.8399 25.4048 52.498C28.8365 52.2319 31.6733 51.5316 33.0759 54.7305C32.3611 58.3928 22.7946 56.5381 21.8154 55.5643C21.214 54.9662 21.2614 53.9992 21.2473 53.217C19.075 52.6402 17.1213 51.5819 15.1522 50.5298C12.9703 52.7556 11.5883 51.1953 9.67235 49.4232C6.09716 46.1169 3.40386 42.4472 1.75555 37.8235C0.673611 34.7887 -1.37323 29.9289 2.59147 28.6797C2.50255 27.566 2.53821 26.4014 2.59147 25.2854Z" fill="black"/>
<path d="M38.9296 40.4649C39.4071 38.5896 40.1384 37.0439 41.9231 36.0598C43.7568 35.0483 46.3002 34.5027 47.3584 36.725C47.5322 37.8893 47.3903 39.0649 46.1309 39.4838C45.8255 40.454 46.1244 41.7337 46.1277 42.7481L46.1273 61.4528C46.1241 63.8498 45.25 68.7244 48.1213 69.4983C49.7712 69.9429 54.5452 69.714 56.486 69.714L71.9527 69.7188C74.4952 69.7198 78.8462 68.9247 79.7816 72.3219C77.2117 75.8906 75.9764 74.833 71.7309 74.8243C70.1445 74.8211 68.4785 74.9356 66.8995 74.8214C66.0744 72.3448 63.1963 73.1077 61.1327 73.108L50.321 73.1131C48.5985 73.1141 46.3092 73.3027 44.648 72.9793C41.994 72.4621 43.9057 69.4909 40.89 68.9772C41.0531 67.3228 40.7462 65.6152 40.89 63.9543C37.8768 63.5583 38.1164 59.9103 40.89 59.4392L40.9264 59.3624L40.9467 59.4179C41.0135 59.2551 40.8887 55.2033 40.89 54.7306C39.6705 54.4984 39.1033 53.711 38.9296 52.498C38.986 51.1677 38.9318 49.8115 38.9312 48.4785L38.9296 40.4649Z" fill="#676767"/>
<path d="M40.89 59.4391C43.8716 59.8963 44.1769 63.5067 40.89 63.9542C37.8768 63.5582 38.1164 59.9102 40.89 59.4391Z" fill="black"/>
<path d="M38.9294 40.4649C39.407 38.5896 40.1383 37.0439 41.923 36.0598C43.7567 35.0483 46.3001 34.5027 47.3583 36.725C47.5321 37.8893 47.3902 39.0649 46.1308 39.4838C45.1483 39.5808 44.1597 39.5018 43.4684 40.3334C41.4113 42.8084 45.9731 54.087 40.8899 54.7306C39.6704 54.4984 39.1032 53.711 38.9294 52.498C38.9859 51.1677 38.9317 49.8115 38.9311 48.4785L38.9294 40.4649Z" fill="black"/>
<path d="M8.51012 66.8539C9.68754 66.9384 18.0032 71.2732 18.3563 72.5817C18.7265 73.9543 17.4303 75.0396 16.2401 75.3418C14.4877 74.9016 12.8245 73.6606 11.2101 72.8422C12.0278 77.1503 14.1133 81.7264 16.364 85.4689C23.2441 96.9106 32.6713 103.893 45.4257 107.051C44.9243 105.545 43.1444 103.451 43.708 101.834C44.2904 100.163 46.5207 99.9135 47.4699 101.344C48.3195 102.624 51.1738 108.649 51.7442 110.295C51.1841 111.889 49.8998 112.839 48.7323 113.994C47.2945 115.414 45.3415 118.15 43.4075 118.707C38.3984 117.472 43.7061 113.073 45.4257 111.439C25.8649 107.014 12.3589 92.9201 6.93663 73.5861C5.96521 74.5447 3.8792 76.9001 2.61692 77.2106C0.805714 77.6562 -0.722871 75.5365 0.362392 74.0146C1.19325 72.849 6.90802 67.1321 8.51012 66.8539Z" fill="black"/>
<path d="M75.8394 0.00201078C77.842 -0.0696673 78.9496 1.78855 77.8111 3.40438C77.1327 4.36702 74.9678 6.18867 74.0047 7.14606C77.9646 7.83923 83.1207 10.3798 86.6204 12.3324C99.2416 19.3748 108.136 31.5021 112.056 45.3195C112.94 44.3029 114.901 42.0826 116.059 41.5557C117.755 40.7847 119.584 42.5981 118.735 44.3077C118.233 45.3163 113.191 50.4044 111.785 51.6038C110.346 52.8307 108.841 51.519 107.489 50.7987L103.16 48.5004C100.697 47.1461 98.8721 44.5096 102.635 43.6951C104.581 44.0381 106.19 45.4633 108.011 46.1679C101.777 28.7784 92.1809 17.0707 73.5887 11.3667C74.4061 12.8625 76.8489 15.3672 76.1167 17.2151C75.6775 18.3234 74.3197 18.9747 73.2099 18.4694C72.2658 18.0393 68.0583 10.5871 67.5891 9.3141C66.7817 7.12361 69.5238 5.44403 70.887 4.11681C72.3644 2.67857 73.8406 0.712601 75.8394 0.00201078Z" fill="black"/>
<path d="M28.2211 2.99889C29.7146 2.84018 32.3702 2.96996 33.7048 3.61545C34.0153 6.0261 36.0379 5.8889 37.9297 6.63599C44.1008 9.07314 49.0648 14.6807 51.1042 20.9618C51.851 23.2621 51.4189 24.3445 53.9604 25.2854C53.7547 26.5913 54.6826 29.3253 52.6509 29.6267C51.5946 29.7831 46.5743 29.7306 45.5102 29.5393C43.366 29.1537 43.8768 27.378 43.8529 25.6627L43.7462 25.691C41.4507 26.2837 41.0532 24.0982 40.3448 22.4667C37.9832 17.0262 31.2652 14.0755 25.6083 15.4533C12.8092 18.57 12.5796 36.376 24.7813 40.1708C26.3351 40.6538 30.6487 41.5115 27.8174 44.3241C30.4098 45.7632 36.8879 41.8652 38.9296 40.4649L38.9312 48.4784C38.9318 49.8114 38.986 51.1676 38.9296 52.4979C37.5798 53.1144 33.9118 54.1414 33.076 54.7305C31.6734 51.5316 28.8366 52.2319 25.4049 52.4979C25.3233 48.8399 22.7016 49.4735 19.9631 48.3111C18.181 47.5546 14.8844 44.2113 13.4585 47.0494C8.17013 43.4368 6.11371 38.1085 4.55859 32.2672C5.77812 31.6268 6.48436 31.2686 6.63523 29.8576C6.67885 29.4494 6.95557 23.641 6.90772 23.4811C6.71364 22.8326 5.96955 22.4196 5.41738 22.1133C6.30208 18.6532 8.87485 15.8357 9.40194 13.6464C9.3007 13.2462 9.1477 12.8844 8.98384 12.5075C10.564 11.3748 11.8209 9.8519 13.4585 8.78753C15.1871 9.45739 16.0132 8.44349 17.4558 7.57464C19.5846 6.29227 21.822 5.34211 24.2712 4.8779C25.8998 4.56926 27.435 4.7073 28.2211 2.99889Z" fill="#696868"/>
<path d="M27.8173 44.3241C26.6881 45.1444 24.5797 44.4705 23.3957 44.1013C15.6511 41.6866 10.9531 34.1086 11.6377 26.0828C12.9284 10.9504 32.325 5.49037 42.202 17.533C43.9467 19.6602 46.6958 23.5162 43.8528 25.6627L43.7461 25.691C41.4507 26.2837 41.0531 24.0982 40.3447 22.4667C37.9832 17.0262 31.2652 14.0755 25.6083 15.4533C12.8091 18.57 12.5795 36.376 24.7812 40.1708C26.3351 40.6538 30.6487 41.5115 27.8173 44.3241Z" fill="black"/>
<path d="M51.7443 36.149C51.7533 33.2983 53.3455 31.1061 56.2974 30.8958C60.482 30.5976 67.2078 29.8057 67.4986 35.5699C67.6424 35.844 67.5267 36.4124 67.4986 36.7249C69.0773 36.7317 70.6698 36.8381 72.2439 36.7249C73.5653 34.7409 75.9491 35.1456 77.7086 36.3734C80.5238 38.338 80.3694 40.9808 80.3694 44.0123L80.3729 58.7906C80.3733 60.2229 80.4587 61.7087 80.3697 63.1345L80.4358 63.3157C81.7588 63.3441 82.0145 63.7101 83.1124 63.9542C81.6256 65.3426 79.8528 66.3879 79.7851 68.5889C79.7058 71.1707 79.9905 73.8347 79.7816 76.4C79.6226 76.0272 79.7806 72.9541 79.7816 72.3218C78.8462 68.9246 74.4952 69.7197 71.9528 69.7187L56.486 69.7139C54.5453 69.7139 49.7713 69.9428 48.1213 69.4982C45.25 68.7243 46.1242 63.8497 46.1274 61.4527L46.1277 42.748C46.1245 41.7336 45.8256 40.4539 46.1309 39.4837C47.3904 39.0648 47.5322 37.8892 47.3585 36.7249C48.5818 36.7297 51.4625 37.2917 51.7443 36.149Z" fill="#6B6B6B"/>
<path d="M72.2437 36.725C73.5651 34.741 75.9489 35.1457 77.7084 36.3735C80.5236 38.3381 80.3692 40.9808 80.3692 44.0124L80.3727 58.7907C80.373 60.223 80.4585 61.7088 80.3695 63.1346C80.1173 64.1735 79.1004 65.1444 77.9747 65.0154C75.3759 64.7178 76.1591 60.636 76.1642 58.9094L76.1597 47.6453C76.16 46.0467 76.6292 41.7041 75.7776 40.3914C74.6884 38.7122 71.7397 40.4262 72.2437 36.725Z" fill="black"/>
<path d="M51.7442 36.149C51.7532 33.2983 53.3454 31.1061 56.2973 30.8958C60.4819 30.5976 67.2077 29.8057 67.4985 35.5699C67.5198 45.0957 65.8486 44.1203 57.5271 44.0994C51.5701 44.0842 51.7206 41.2477 51.7442 36.149Z" fill="black"/>
<path d="M55.9336 35.0502H63.2858V39.9686H55.9336V35.0502Z" fill="#696868"/>
<path d="M83.1123 63.9543C85.9097 60.7499 90.4471 59.6413 93.8353 62.6323C95.7467 64.3196 97.5069 66.27 99.3113 68.0754L114.381 83.0439C118.723 87.3398 121.471 92.8651 116.538 98.3665C115.566 99.4503 110.447 104.864 109.494 104.917C107.698 105.018 107.19 102.828 105.539 102.856C104.416 102.874 103.196 104.283 103.287 105.388C103.425 107.063 106.264 108.296 104.856 110.078C103.639 111.619 98.5738 116.533 97.3444 117.279C91.0546 121.097 84.4401 116.381 80.8436 111.232C80.2309 110.355 80.3715 109.471 81.0886 108.743C80.1326 107.875 78.968 106.817 78.3544 105.675C79.7447 103.425 77.7192 101.808 75.8393 103.617C74.6786 102.421 73.2837 101.377 72.2438 100.076C71.8243 100.289 71.3526 100.363 70.8957 100.459C69.3051 100.123 68.3584 98.6393 67.275 97.555C60.0105 90.2846 63.4867 85.9656 69.7978 79.7441C74.262 75.3435 74.4754 77.2242 78.3544 81.1577C79.0208 80.0043 79.8801 79.4868 80.9803 78.8061L81.0886 78.7384C80.4157 77.9846 79.8734 77.4519 79.7815 76.4001C79.9904 73.8348 79.7057 71.1708 79.785 68.589C79.8527 66.3881 81.6255 65.3427 83.1123 63.9543Z" fill="#696868"/>
<path d="M102.635 82.3968C104.768 82.2423 106.793 85.518 103.607 87.0953C101.307 87.5748 99.2562 83.1074 102.635 82.3968Z" fill="white"/>
<path d="M108.011 87.0952C109.223 86.8889 110.435 88.9318 110.876 89.8227C110.479 90.93 110.032 91.6116 108.831 91.9728C106.294 91.8557 104.691 87.4609 108.011 87.0952Z" fill="white"/>
<path d="M83.1123 63.9543C85.9097 60.7499 90.4471 59.6413 93.8353 62.6323C95.7467 64.3196 97.5069 66.27 99.3113 68.0754L114.381 83.0439C118.723 87.3398 121.471 92.8651 116.538 98.3665C115.566 99.4503 110.447 104.864 109.494 104.917C107.698 105.018 107.19 102.828 105.539 102.856C104.416 102.874 103.196 104.283 103.287 105.388C103.425 107.063 106.264 108.296 104.856 110.078C103.639 111.619 98.5738 116.533 97.3444 117.279C91.0546 121.097 84.4401 116.381 80.8436 111.232C80.2309 110.355 80.3715 109.471 81.0886 108.743C83.5108 104.804 86.8284 114.353 92.3014 114.371C95.62 114.382 97.9293 110.915 100.082 108.743C99.7078 107.912 99.4251 107.126 99.2442 106.232C98.4471 101.697 102.487 98.3565 106.757 98.7551C107.694 98.8863 108.383 99.1871 109.143 99.7337C112.142 96.9114 116.376 93.4768 114.048 89.1277C112.994 87.1708 110.005 84.7277 108.376 83.1L94.545 69.2823C93.4506 68.1679 92.3646 66.9546 91.1452 65.9795C88.2174 63.638 86.0403 67.2635 83.9935 68.9772V75.703C85.5805 77.3816 88.4331 79.7157 89.6358 81.4956C93.1656 86.7213 85.5525 92.9983 80.8091 89.4363C79.6135 88.5386 74.3226 83.269 73.5887 82.1069C71.8624 83.3873 70.3163 85.1562 68.8276 86.7075C63.9104 91.8807 73.6971 96.0005 73.1134 98.6716C72.9903 99.2355 72.5856 99.6389 72.2438 100.076C71.8243 100.289 71.3526 100.363 70.8957 100.459C69.3051 100.123 68.3584 98.6393 67.275 97.555C60.0105 90.2846 63.4867 85.9656 69.7978 79.7441C74.262 75.3435 74.4754 77.2242 78.3544 81.1577C79.0208 80.0043 79.8801 79.4868 80.9803 78.8061L81.0886 78.7384C80.4157 77.9846 79.8734 77.4519 79.7815 76.4001C79.9904 73.8348 79.7057 71.1708 79.785 68.589C79.8527 66.3881 81.6255 65.3427 83.1123 63.9543Z" fill="black"/>
<path d="M81.0888 78.7383C82.3672 80.0338 85.1734 82.506 86.1298 83.9408C86.7992 84.9455 84.9677 86.5097 83.9843 86.304C83.2839 86.1576 78.8894 81.8534 78.3545 81.1575C79.021 80.0042 79.8803 79.4867 80.9804 78.806L81.0888 78.7383Z" fill="#6B6B6B"/>
</svg>
