<svg width="108" height="108" viewBox="0 0 108 108" fill="none" xmlns="http://www.w3.org/2000/svg">
<path d="M95.7648 104.001C96.469 104.016 97.3513 103.961 98.0026 104.271C99.4759 104.973 98.8895 106.934 97.5344 107.353C96.8526 107.364 95.9822 107.471 95.3481 107.196C93.6732 106.467 94.3122 104.492 95.7648 104.001Z" fill="black"/>
<path d="M105.891 31.0051C106.605 31.0302 106.983 31.1806 107.505 31.6698C108.094 33.35 108.548 37.3046 105.891 37.6433C105.269 37.4696 104.837 37.1413 104.385 36.6984C104.229 34.7526 103.718 31.6683 105.891 31.0051Z" fill="black"/>
<path d="M11.7395 51.2354C12.0867 51.2244 12.4644 51.2302 12.7795 51.3949C13.6155 51.8314 18.9585 56.95 19.3444 58.3357C19.1308 59.2221 18.9047 59.6993 17.9912 60.0558C16.1807 60.1745 14.3884 57.4907 13.088 56.1984C11.8128 54.9314 9.57507 53.6862 10.8316 51.6789C11.1348 51.4822 11.3947 51.3486 11.7395 51.2354Z" fill="black"/>
<path d="M63.5106 63.2632C64.8224 63.2192 66.0321 64.1891 65.3596 65.6124C65.1666 66.0203 58.0434 73.3802 57.0557 73.7719C55.269 73.8725 54.2546 72.3067 55.5164 70.8779C56.818 69.4043 62.2323 63.8798 63.5106 63.2632Z" fill="black"/>
<path d="M22.4549 61.5973C23.9381 61.5213 25.5935 63.8778 26.548 64.8357L31.4888 69.7777C32.6435 70.9396 36.1322 74.0833 36.8513 75.2539C37.4484 76.2262 36.4674 77.1381 35.6623 77.4984C34.0955 77.6727 30.3932 73.3086 29.2263 72.1479L24.2998 67.2446C22.9548 65.9078 18.8509 63.0159 22.4549 61.5973Z" fill="black"/>
<path d="M22.4548 77.2011C21.2128 76.5321 19.8972 75.5995 18.4263 76.0607C14.5229 77.2849 16.5927 81.2966 14.6457 81.9964C10.6238 83.4421 11.5116 74.3153 17.9607 72.7282C21.4462 71.8704 28.733 76.4265 30.5733 79.2704C30.6809 80.5877 29.7378 82.132 28.2296 81.3076C27.7658 81.0545 27.5463 80.375 27.1395 80.0267C25.8426 78.9171 24.0841 77.9504 22.5299 77.2352L22.4548 77.2011Z" fill="black"/>
<path d="M37.0254 82.3891C37.9932 79.1279 40.8531 81.3846 40.8491 75.102L40.8418 68.7566C40.84 67.5248 40.7021 66.1074 40.957 64.9021C41.7011 61.3833 45.7622 59.9618 48.7086 61.8193C51.2612 63.4285 50.9958 65.734 50.9757 68.3573L50.9594 73.427C50.9562 75.187 50.5392 77.6482 52.4071 78.6606C54.9289 80.0274 59.5734 74.7662 62.8684 73.8918C68.4112 72.4208 72.6062 79.9322 68.6961 80.7464C66.0318 80.6722 67.437 77.1658 64.539 77.006C61.0435 76.8134 57.0508 83.7923 51.8618 82.0655C47.514 80.6184 47.6682 77.2388 47.6712 73.5859L47.6808 68.0471C47.6939 62.1024 44.1082 64.2837 44.0806 66.1679C44.041 68.8471 44.5069 76.3774 43.9293 78.6277C43.3185 81.0075 41.1566 83.4402 38.7978 84.2189C37.7925 83.8278 37.2954 83.4184 37.0254 82.3891Z" fill="black"/>
<path d="M38.7979 84.2188C41.1567 83.4401 43.3185 81.0074 43.9293 78.6277C44.507 76.3774 44.0411 68.847 44.0806 66.1678C44.1083 64.2837 47.6939 62.1023 47.6808 68.0471L47.6712 73.5859C47.6683 77.2388 47.5141 80.6184 51.8619 82.0655C57.0509 83.7923 61.0436 76.8133 64.5391 77.006C67.4371 77.1657 66.0319 80.6722 68.6962 80.7464L68.354 80.8197C68.1928 81.1067 68.636 83.6991 68.6962 84.2188C68.1948 84.371 67.66 84.5273 67.4019 85.0307C66.9715 85.8711 67.1825 94.2137 67.1827 95.6756L45.6424 95.6718C43.9596 95.6681 41.9628 95.1574 41.3115 97.144L41.2303 97.5598C40.7665 97.5656 37.5225 97.6506 37.3447 97.5479C37.2888 95.396 35.4893 95.6683 33.9342 95.6701L18.877 95.6756L18.8726 86.9324C18.8729 81.8237 17.7296 79.86 22.4548 77.2009L22.5298 77.235C24.084 77.9502 25.8425 78.9169 27.1395 80.0265C27.5463 80.3748 27.7657 81.0543 28.2296 81.3074C29.7378 82.1318 30.6809 80.5875 30.5732 79.2702C31.8917 79.7934 36.1243 81.6424 37.0255 82.3891C37.2955 83.4183 37.7925 83.8278 38.7979 84.2188Z" fill="#6B6B6B"/>
<path d="M68.6962 84.2189C71.2267 84.3108 70.5295 87.6183 70.5234 89.3008L70.5199 96.0467C75.4438 96.5774 75.3632 100.361 75.6178 104.001L75.759 104.011C76.8741 104.082 77.9982 104.004 79.115 104.001L85.2949 103.996C87.0187 103.996 90.2735 103.403 90.6565 105.735C89.963 108.431 85.3272 107.35 82.7944 107.35L6.94041 107.349C5.67775 107.348 2.31766 107.541 1.30942 107.237C-0.189958 106.786 -0.55923 104.836 1.03699 104.176C2.02757 103.767 5.49638 104.006 6.77379 104.001C6.7588 99.3771 7.59393 97.0212 12.1716 95.6756C12.1899 93.8767 12.1894 92.0708 12.1696 90.2722C12.1474 88.2634 11.4409 86.4712 13.7878 85.7664C16.1053 86.372 15.4727 88.2573 15.4703 90.312L15.4636 95.6756H18.877L33.9342 95.6701C35.4893 95.6684 37.2888 95.396 37.3447 97.5479C37.5225 97.6506 40.7665 97.5657 41.2304 97.5598L41.3116 97.144C41.9628 95.1574 43.9596 95.6681 45.6424 95.6719L67.1828 95.6756C67.1825 94.2137 66.9715 85.8711 67.4019 85.0308C67.66 84.5273 68.1949 84.3711 68.6962 84.2189ZM10.0907 104.001H13.4197C14.2231 103.866 13.7913 99.937 13.7878 99.0139C10.5327 99.0849 10.0331 101.051 10.0887 103.934L10.0907 104.001Z" fill="black"/>
<path d="M37.3447 97.5479C37.5225 97.6507 40.7665 97.5657 41.2304 97.5599L41.3116 97.144C41.5074 100.183 47.6523 99.0087 50.0941 99.0111L64.6479 99.0122C70.409 99.0128 72.3866 97.6472 72.3369 104.001H13.4197C14.2231 103.866 13.7913 99.937 13.7878 99.014L28.7083 99.0143C31.038 99.014 33.3971 99.1068 35.7236 99.0434C36.816 99.0137 36.9495 98.4765 37.3447 97.5479Z" fill="#363636"/>
<path d="M58.7805 7.70972C54.6469 6.53393 59.2539 1.81017 61.4547 0.777608C63.6121 -0.234706 65.9494 0.0311178 68.2529 0.0325437L84.6834 0.0326325C89.1676 0.0326325 92.579 -0.295087 96.0206 3.29018C97.4732 3.29215 99.2209 3.10112 100.63 3.24155C107.556 3.93167 109.666 11.8059 105.891 17.4148L105.893 26.0562C105.892 27.7027 105.934 29.3602 105.891 31.0052C103.719 31.6684 104.229 34.7526 104.385 36.6985C104.837 37.1414 105.269 37.4696 105.891 37.6434C105.881 39.0553 106.096 41.8424 105.891 43.1184C109.744 44.0904 105.363 49.8195 103.862 51.2355C103.84 56.1009 98.9954 56.6791 95.3734 57.7089L89.827 59.2486C87.2506 59.9368 86.3683 60.1993 83.8028 59.1171L77.254 60.9495C76.0379 61.2934 74.8088 61.7084 73.57 61.9548C68.6414 62.9343 66.0082 55.7884 70.541 53.5285C72.0906 52.7559 79.2828 50.948 81.057 50.6375C82.796 47.5462 85.1475 47.6169 88.269 46.7576C90.4291 46.1634 94.6022 44.7303 96.7274 44.551L96.7358 23.5074C96.7446 22.4511 96.7914 21.3957 96.7274 20.3402H90.6566C90.5752 23.2874 90.9331 26.3551 86.8769 26.4293C80.445 26.5466 78.0283 27.6561 78.0542 20.3402H76.9924C76.7261 22.5809 75.6774 24.4363 74.7939 26.4855L71.0186 35.3192C68.5503 41.1048 67.4463 47.3646 59.714 47.7112C59.4378 48.6977 58.9772 49.6813 58.6085 50.6392C56.5768 55.9181 56.3218 58.4815 50.0285 55.995C49.5728 57.1889 48.9079 59.8995 47.0787 58.8421C46.4516 58.4795 46.2322 57.9676 46.0622 57.3044C46.2549 56.4239 46.6332 55.5535 46.8974 54.6884C38.9393 51.5183 42.6224 47.3929 45.4311 41.8206C41.3423 37.893 41.9537 34.2338 43.9618 29.7533L45.8952 25.4917C46.7411 23.6235 47.4715 20.3417 49.3618 19.6869C49.693 19.7387 49.9942 19.8295 50.3108 19.9337C51.0793 18.8777 51.2673 17.5618 51.8734 16.4266C50.8078 16 50.4344 15.0656 50.8279 13.9983C53.2955 7.30518 55.8111 9.87167 61.0144 11.8286C62.4624 8.60584 62.7057 5.37495 65.9055 3.29018C59.5921 3.23436 62.0414 6.79684 58.7805 7.70972ZM54.8258 12.8939C54.1484 14.4039 53.9226 16.4106 51.8734 16.4266C51.2673 17.5618 51.0793 18.8777 50.3108 19.9337C50.8104 20.2506 51.0647 20.8046 51.3004 21.3235C50.2723 23.4009 49.4436 25.6075 48.4976 27.7263C46.7836 31.5645 43.4049 36.6316 48.2441 39.978C49.4177 40.7896 56.7173 43.829 58.4493 44.3447C62.8806 45.6641 64.8564 41.5677 66.1502 38.3912L71.7137 25.3386C72.4278 23.7184 73.3227 22.0431 73.8127 20.3402C72.3731 19.3962 69.886 18.628 68.2273 17.9957C63.7725 16.2974 59.1963 14.7874 54.8258 12.8939ZM48.1536 43.5587C47.4157 45.0457 45.8542 47.8032 45.4564 49.355C45.1235 50.6523 46.2915 50.9145 47.3036 51.2355C48.2075 48.993 49.2556 46.7306 50.3108 44.551C49.5626 44.2882 48.8523 43.9315 48.1536 43.5587Z" fill="black"/>
<path d="M81.2712 20.3403H87.4097V23.1429H81.2712C81.2397 22.2117 81.2665 21.2724 81.2712 20.3403Z" fill="#6B6B6B"/>
<path d="M80.3752 54.182L80.5202 54.1934C80.9264 54.6875 81.1068 55.9076 81.2709 56.5516C78.2376 56.9075 75.3524 58.2353 72.3368 58.7646C71.21 58.2321 71.1126 56.9243 72.3537 56.4163C74.2149 55.6541 78.37 54.6767 80.3752 54.182Z" fill="#6B6B6B"/>
<path d="M50.3104 44.551C52.3761 45.3187 54.5053 46.2007 56.5071 47.1249C55.8122 48.8447 54.5964 52.5159 53.6158 53.8442C51.5296 53.0239 49.305 52.2313 47.3032 51.2355C48.2071 48.9931 49.2552 46.7306 50.3104 44.551Z" fill="#696868"/>
<path d="M51.3003 47.1249C53.6134 46.9768 53.9588 49.9402 51.8732 50.6375C50.5917 50.6436 50.0312 50.0537 49.6917 48.8479C49.9646 47.912 50.3161 47.4357 51.3003 47.1249Z" fill="black"/>
<path d="M98.213 6.40599C105.376 6.02819 106.804 14.3692 100.963 16.7417C99.3005 17.2696 97.4873 17.0545 95.7649 17.0487C97.8225 14.7839 99.0805 12.0031 98.612 8.88134C98.4912 8.07697 98.1458 7.27021 98.0754 6.47856L98.213 6.40599Z" fill="#696868"/>
<path d="M97.5344 47.7112C99.2341 47.4676 99.9808 49.0751 100.342 50.4701C100.972 52.8999 98.9606 53.2226 97.1855 53.7144L93.647 54.686C91.4046 55.3 89.1794 56.0473 86.9099 56.5516C84.2426 56.9759 82.6282 52.1736 85.1919 51.0928C87.4692 50.1326 95.1398 48.1651 97.5344 47.7112Z" fill="#696868"/>
<path d="M100.001 20.3402C102.43 20.1563 104.151 19.0275 105.891 17.4148L105.892 26.0562C105.892 27.7026 105.934 29.3601 105.891 31.0051C103.718 31.6683 104.229 34.7526 104.385 36.6985C104.837 37.1414 105.269 37.4696 105.891 37.6433C105.88 39.0552 106.096 41.8424 105.891 43.1184C104.066 43.1411 103.783 46.0336 102.85 47.7112C102.134 46.3575 101.451 45.4656 100.001 44.8708V20.3402Z" fill="#696868"/>
<path d="M65.9055 3.29017L86.2195 3.28947C87.4807 3.28999 88.796 3.22478 90.0359 3.48231C97.0649 4.94224 97.0454 15.1544 89.7929 16.8582C87.6506 17.3616 78.3731 17.1285 75.5962 17.0592C73.8796 17.0168 72.0341 15.9436 70.454 15.3366L63.6866 12.7976C62.8442 12.481 61.8877 11.9924 61.0144 11.8286C62.4624 8.60584 62.7057 5.37495 65.9055 3.29017Z" fill="#696868"/>
<path d="M73.3946 8.29243C74.3691 8.27879 74.8152 8.97284 75.0698 9.84175C74.8664 10.9379 74.5452 11.4172 73.3946 11.6046C71.0067 11.6692 70.7517 8.50201 73.3946 8.29243Z" fill="black"/>
<path d="M81.271 8.29245C82.6416 8.29495 89.2341 8.09201 90.0379 8.47339C91.6666 9.2461 90.949 11.2807 89.4238 11.6046C87.324 11.6064 83.2623 11.8499 81.3266 11.593C79.2291 11.3145 79.2611 8.50813 81.271 8.29245Z" fill="black"/>
<path d="M54.8257 12.894C59.1961 14.7875 63.7723 16.2975 68.2272 17.9958C69.8858 18.6281 72.373 19.3963 73.8125 20.3403C73.3225 22.0432 72.4277 23.7185 71.7136 25.3387L66.15 38.3913C64.8563 41.5678 62.8804 45.6642 58.4491 44.3448C56.7171 43.8292 49.4175 40.7897 48.2439 39.9781C43.4047 36.6317 46.7834 31.5646 48.4974 27.7264C49.4434 25.6076 50.2722 23.401 51.3003 21.3236C51.0646 20.8047 50.8102 20.2507 50.3106 19.9338C51.0791 18.8778 51.2671 17.5619 51.8732 16.4267C53.9224 16.4107 54.1482 14.404 54.8257 12.894ZM54.2763 17.733C53.2889 18.4809 47.1914 32.5682 46.9417 34.327C46.679 36.1798 47.3753 40.4283 50.0283 40.1195C50.5931 39.7471 50.7843 39.2847 50.9671 38.6515C50.711 38.0779 50.3461 37.5693 50.0525 37.0167C48.853 34.7588 51.1382 31.0833 52.051 29.0096L55.0573 22.15C55.5136 21.1339 56.1255 20.1206 56.5073 19.0818C55.9637 18.0484 55.4225 17.6704 54.2763 17.733Z" fill="#696868"/>
</svg>
